<svg id="Layer_1" data-name="Layer 1" xmlns="http://www.w3.org/2000/svg" viewBox="0 0 100 100"><defs><style>.cls-1{fill:none;stroke:#4550e5;stroke-linecap:round;stroke-linejoin:round;}</style></defs><title>monitor-window</title><path class="cls-1" d="M27,36.45H23.32a3.79,3.79,0,0,0-3.78,3.79V64.17A3.78,3.78,0,0,0,23.32,68H59.86a3.78,3.78,0,0,0,3.78-3.78"/><path class="cls-1" d="M59.86,68a3.78,3.78,0,0,0,3.78-3.77V62.91H19.54v1.27A3.77,3.77,0,0,0,23.32,68Z"/><polygon class="cls-1" points="45.37 73 37.81 73 38.44 67.95 44.74 67.95 45.37 73"/><path class="cls-1" d="M49.78,75.51H33.4A2.52,2.52,0,0,1,35.92,73H47.26A2.52,2.52,0,0,1,49.78,75.51Z"/><path class="cls-1" d="M66.16,53.47A2.54,2.54,0,0,1,63.64,56H32.14a2.53,2.53,0,0,1-2.52-2.52V32.05H66.16V53.47Z"/><path class="cls-1" d="M66.16,32.05H29.62V27a2.52,2.52,0,0,1,2.52-2.51h31.5A2.53,2.53,0,0,1,66.16,27v5Z"/><path class="cls-1" d="M33.4,27a1.27,1.27,0,1,1-1.26,1.26A1.27,1.27,0,0,1,33.4,27Z"/><path class="cls-1" d="M38.44,27a1.27,1.27,0,1,1-1.26,1.26A1.27,1.27,0,0,1,38.44,27Z"/><path class="cls-1" d="M43.48,27a1.27,1.27,0,1,1-1.26,1.26A1.27,1.27,0,0,1,43.48,27Z"/><path class="cls-1" d="M46,43.6a1.06,1.06,0,0,1-1,1H42a1.06,1.06,0,0,1-1-1v-3a1,1,0,0,1,1-1H45a1,1,0,0,1,1,1Z"/><path class="cls-1" d="M54.19,43.6a1.06,1.06,0,0,1-1,1H50.2a1.06,1.06,0,0,1-1.05-1v-3a1,1,0,0,1,1.05-1h2.94a1,1,0,0,1,1,1Z"/><path class="cls-1" d="M62.38,43.6a1.06,1.06,0,0,1-1.05,1H58.39a1.06,1.06,0,0,1-1-1v-3a1,1,0,0,1,1-1h2.94a1,1,0,0,1,1.05,1Z"/><path class="cls-1" d="M46,51.15a1,1,0,0,1-1,1.05H42a1,1,0,0,1-1-1.05V48.22a1.06,1.06,0,0,1,1-1.06H45a1.06,1.06,0,0,1,1,1.06Z"/><path class="cls-1" d="M54.19,51.15a1,1,0,0,1-1,1.05H50.2a1,1,0,0,1-1.05-1.05V48.22a1.06,1.06,0,0,1,1.05-1.06h2.94a1.06,1.06,0,0,1,1,1.06Z"/><path class="cls-1" d="M62.38,51.15a1,1,0,0,1-1.05,1.05H58.39a1,1,0,0,1-1-1.05V48.22a1.06,1.06,0,0,1,1-1.06h2.94a1.06,1.06,0,0,1,1.05,1.06Z"/><path class="cls-1" d="M38.44,36a1,1,0,0,1-1,1H34.45a1,1,0,0,1-1.05-1v-.42a1,1,0,0,1,1.05-1h2.94a1,1,0,0,1,1,1Z"/><path class="cls-1" d="M62.38,36a1,1,0,0,1-1.05,1H42a1,1,0,0,1-1-1v-.42a1,1,0,0,1,1-1H61.33a1,1,0,0,1,1.05,1Z"/><line class="cls-1" x1="33.4" y1="39.6" x2="38.44" y2="39.6"/><line class="cls-1" x1="33.4" y1="42.13" x2="38.44" y2="42.13"/><line class="cls-1" x1="33.4" y1="44.65" x2="38.44" y2="44.65"/><line class="cls-1" x1="33.4" y1="47.16" x2="38.44" y2="47.16"/><line class="cls-1" x1="33.4" y1="49.68" x2="38.44" y2="49.68"/><line class="cls-1" x1="33.4" y1="52.2" x2="36.55" y2="52.2"/><path class="cls-1" d="M74.35,66c-.18.67-.55.7-.82.06L69.4,56.13c-.26-.64,0-1,.68-.68L80,59.58c.64.27.61.64,0,.82l-3.18.87a2.45,2.45,0,0,0-1.55,1.54Z"/><circle class="cls-1" cx="41.59" cy="65.44" r="0.52"/><polyline class="cls-1" points="63.64 64.17 63.64 62.91 63.64 58.61"/></svg>