<svg id="Layer_1" data-name="Layer 1" xmlns="http://www.w3.org/2000/svg" viewBox="0 0 100 100"><defs><style>.cls-1{fill:none;stroke:#4550e5;stroke-linecap:round;stroke-linejoin:round;}.cls-2{fill:#4550e5;}</style></defs><title>programmer-male</title><rect class="cls-1" x="63.47" y="24.15" width="19.25" height="37.4"/><rect class="cls-1" x="63.47" y="21.95" width="19.25" height="2.2"/><path class="cls-1" d="M61.27,64.85h2.2V22a1.09,1.09,0,0,0-1.09-1.1h0A1.11,1.11,0,0,0,61.27,22Z"/><path class="cls-1" d="M82.72,64.85h2.2V22a1.09,1.09,0,0,0-1.09-1.1h0A1.11,1.11,0,0,0,82.72,22Z"/><line class="cls-1" x1="42.03" y1="61.55" x2="39.83" y2="61.55"/><polyline class="cls-1" points="47.53 61.55 50.28 61.55 53.58 61.55 59.08 61.55 59.08 24.15 39.83 24.15"/><path class="cls-1" d="M56.88,29.65H42v-2.2a1.1,1.1,0,0,1,1.1-1.1H55.77a1.11,1.11,0,0,1,1.11,1.1Z"/><path class="cls-1" d="M50.27,26.35,47,29.65h9.91v-2.2a1.11,1.11,0,0,0-1.11-1.1Z"/><path class="cls-1" d="M42.09,44.69a1.09,1.09,0,0,1,1-.74H55.78a1.11,1.11,0,0,1,1.1,1.1v2.2H44.61"/><path class="cls-1" d="M50.27,44,47,47.25h9.91v-2.2A1.11,1.11,0,0,0,55.77,44Z"/><path class="cls-1" d="M56.88,31.85A1.11,1.11,0,0,1,55.77,33H43.12a1.1,1.1,0,0,1-1.1-1.1v-2.2H56.88Z"/><path class="cls-1" d="M50.27,29.65,47,33h8.8a1.11,1.11,0,0,0,1.11-1.1v-2.2Z"/><path class="cls-1" d="M80.52,29.65H65.67v-2.2a1.1,1.1,0,0,1,1.1-1.1H79.42a1.1,1.1,0,0,1,1.1,1.1Z"/><path class="cls-1" d="M73.92,26.35l-3.3,3.3h9.9v-2.2a1.1,1.1,0,0,0-1.1-1.1Z"/><path class="cls-1" d="M80.52,31.85a1.1,1.1,0,0,1-1.1,1.1H66.77a1.1,1.1,0,0,1-1.1-1.1v-2.2H80.52Z"/><path class="cls-1" d="M73.92,29.65,70.62,33h8.8a1.1,1.1,0,0,0,1.1-1.1v-2.2Z"/><path class="cls-1" d="M80.52,38.45H65.67v-2.2a1.1,1.1,0,0,1,1.1-1.1H79.42a1.1,1.1,0,0,1,1.1,1.1Z"/><path class="cls-1" d="M73.92,35.15l-3.3,3.3h9.9v-2.2a1.1,1.1,0,0,0-1.1-1.1Z"/><path class="cls-1" d="M80.52,40.65a1.1,1.1,0,0,1-1.1,1.1H66.77a1.1,1.1,0,0,1-1.1-1.1v-2.2H80.52Z"/><path class="cls-1" d="M73.92,38.45l-3.3,3.3h8.8a1.1,1.1,0,0,0,1.1-1.1v-2.2Z"/><path class="cls-1" d="M46.78,52.75h9a1.1,1.1,0,0,1,1.1,1.1v2.2H47.53"/><path class="cls-1" d="M42.7,52.84a1.08,1.08,0,0,0-.67,1v.55"/><path class="cls-1" d="M47.53,56.05h9.35v-2.2a1.1,1.1,0,0,0-1.1-1.1h-5.5L47.53,55.5"/><path class="cls-1" d="M47.53,59.35h8.25a1.1,1.1,0,0,0,1.1-1.1v-2.2H47.53"/><path class="cls-1" d="M47.53,59.35h8.25a1.1,1.1,0,0,0,1.1-1.1v-2.2h-6.6L47.53,58.8"/><path class="cls-1" d="M56.88,38.45H42v-2.2a1.1,1.1,0,0,1,1.1-1.1H55.77a1.11,1.11,0,0,1,1.11,1.1Z"/><path class="cls-1" d="M50.27,35.15,47,38.45h9.91v-2.2a1.11,1.11,0,0,0-1.11-1.1Z"/><path class="cls-1" d="M56.88,40.65a1.11,1.11,0,0,1-1.11,1.1H43.12a1.1,1.1,0,0,1-1.1-1.1v-2.2H56.88Z"/><path class="cls-1" d="M50.27,38.45,47,41.75h8.8a1.11,1.11,0,0,0,1.11-1.1v-2.2Z"/><path class="cls-1" d="M80.52,47.25H65.67v-2.2a1.1,1.1,0,0,1,1.1-1.1H79.42a1.1,1.1,0,0,1,1.1,1.1Z"/><path class="cls-1" d="M73.92,44l-3.3,3.3h9.9v-2.2a1.1,1.1,0,0,0-1.1-1.1Z"/><path class="cls-1" d="M80.52,49.45a1.1,1.1,0,0,1-1.1,1.1H66.77a1.1,1.1,0,0,1-1.1-1.1v-2.2H80.52Z"/><path class="cls-1" d="M73.92,47.25l-3.3,3.3h8.8a1.1,1.1,0,0,0,1.1-1.1v-2.2Z"/><path class="cls-1" d="M80.52,56.05H65.67v-2.2a1.1,1.1,0,0,1,1.1-1.1H79.42a1.1,1.1,0,0,1,1.1,1.1Z"/><path class="cls-1" d="M73.92,52.75l-3.3,3.3h9.9v-2.2a1.1,1.1,0,0,0-1.1-1.1Z"/><path class="cls-1" d="M80.52,58.25a1.1,1.1,0,0,1-1.1,1.1H66.77a1.1,1.1,0,0,1-1.1-1.1v-2.2H80.52Z"/><path class="cls-1" d="M73.92,56.05l-3.3,3.3h8.8a1.1,1.1,0,0,0,1.1-1.1v-2.2Z"/><path class="cls-1" d="M44.61,47.25H56.88v2.2a1.1,1.1,0,0,1-1.1,1.1h-11"/><path class="cls-1" d="M50.27,47.25,47,50.55h8.8a1.11,1.11,0,0,0,1.11-1.1v-2.2Z"/><rect class="cls-1" x="39.82" y="21.95" width="19.25" height="2.2"/><polyline class="cls-1" points="37.63 55.5 37.63 55.84 37.63 56.38"/><polyline class="cls-1" points="37.63 60.21 37.63 64.85 39.83 64.85 39.83 61.55 39.83 58.36"/><path class="cls-1" d="M39.83,44.5V22a1.11,1.11,0,0,0-1.1-1.1,1.1,1.1,0,0,0-1.1,1.1V44.5"/><path class="cls-1" d="M59.08,64.85h2.19V22a1.1,1.1,0,0,0-1.1-1.1h0A1.09,1.09,0,0,0,59.08,22Z"/><path class="cls-1" d="M42,52.75h0a2.75,2.75,0,0,1,2.75,2.75V75.3a4,4,0,0,0,4,4h3.66"/><path class="cls-1" d="M53.58,80.25h2.75v-2.2H53.58a1.11,1.11,0,0,0-1.11,1.1h0A1.11,1.11,0,0,0,53.58,80.25Z"/><path class="cls-1" d="M53.58,61.55v6.24a2.56,2.56,0,0,0,2.55,2.56h2.39a4.4,4.4,0,0,1,4.4,4.4h0a4.4,4.4,0,0,1-4.4,4.4H56.33"/><path class="cls-1" d="M50.27,61.55v6.16a2.64,2.64,0,0,0,2.64,2.64h5.61"/><path class="cls-1" d="M19.47,29.43a1.35,1.35,0,0,0,.14,2.67,6.61,6.61,0,0,0,13.07-1.35V27"/><path class="cls-1" d="M33.22,59.9H18.93V51.65H15.08V50a10.42,10.42,0,0,1,8.28-10.21l.53-.11.79-.1h0c.28,0,.55,0,.83,0s.55,0,.81,0,.51.05.75.09h.07a7,7,0,0,1,.77.16c.23,0,.46.11.68.18l.08,0a10.26,10.26,0,0,1,5.7,4.45"/><polyline class="cls-1" points="33.23 56.38 33.23 55.84 33.23 55.5"/><path class="cls-2" d="M25.25,28.55a.83.83,0,1,0,.83.83.83.83,0,0,0-.83-.83Z"/><path class="cls-2" d="M29.65,28.55a.83.83,0,1,0,.82.83.82.82,0,0,0-.82-.83Z"/><path class="cls-1" d="M25.52,33.55a3,3,0,0,0,3.3,0"/><path class="cls-1" d="M33.22,26.9a7.15,7.15,0,1,0-14.29,0v2.2a5.69,5.69,0,0,0,3.84-3.3C25.86,27.87,29.93,27.45,33.22,26.9Z"/><path class="cls-1" d="M21.68,24.7a3.5,3.5,0,0,0,1.09,1.1"/><path class="cls-1" d="M15.07,62.93a1.93,1.93,0,0,0,3.86,0V51.65H15.07Z"/><line class="cls-1" x1="18.93" y1="51.65" x2="18.93" y2="48.35"/><path class="cls-1" d="M23.36,39.78l2.71,3.62L28.69,40a10.4,10.4,0,0,0-5.33-.26Z"/><path class="cls-1" d="M26.07,43.4l2,.34a.92.92,0,0,0,1-1.07L28.69,40Z"/><path class="cls-1" d="M23.36,39.78,23,42.71a.91.91,0,0,0,1.06,1l2.06-.34Z"/><line class="cls-1" x1="26.07" y1="43.4" x2="26.07" y2="59.9"/><path class="cls-1" d="M37.62,55.5h3.31A1.09,1.09,0,0,0,42,54.4v-6a1.09,1.09,0,0,0-1.09-1.1H30.47a1.1,1.1,0,0,0-1.1,1.1v6a1.1,1.1,0,0,0,1.1,1.1h2.75"/><circle class="cls-1" cx="35.7" cy="52.2" r="1.1"/><path class="cls-1" d="M36.3,57.7H34.55a1.33,1.33,0,0,1-1.33-1.32v-.54a.89.89,0,0,1,.9-.89h2.61a.89.89,0,0,1,.89.89v.54A1.32,1.32,0,0,1,36.3,57.7Z"/><path class="cls-1" d="M32.68,77a3.19,3.19,0,0,1,.54,0V59.9H18.93V77h4.39A2.93,2.93,0,0,1,24,77l.37-10.52a1.72,1.72,0,0,1,3.43,0L28.27,77Z"/><path class="cls-1" d="M36,80.25A3.29,3.29,0,0,0,32.68,77H28.27v2.2a1.1,1.1,0,0,0,1.1,1.1Z"/><path class="cls-1" d="M26.62,80.25a3.3,3.3,0,0,0-3.3-3.3H18.93v2.2A1.09,1.09,0,0,0,20,80.25Z"/></svg>