<svg id="Layer_1" data-name="Layer 1" xmlns="http://www.w3.org/2000/svg" viewBox="0 0 100 100"><defs><style>.cls-1,.cls-2{fill:none;stroke:#4550e5;stroke-linejoin:round;}.cls-2{stroke-linecap:round;}</style></defs><title>real-estate-house</title><path class="cls-1" d="M52.13,26.38A2.42,2.42,0,0,0,49.71,24a2.55,2.55,0,0,0-.88.16,4,4,0,0,0-7.95,0A2.53,2.53,0,0,0,40,24a2.43,2.43,0,1,0,0,4.85h9.7A2.43,2.43,0,0,0,52.13,26.38Z"/><path class="cls-1" d="M78.44,50.46V43.85a1,1,0,0,0-1-1H74.6a1,1,0,0,0-1,1v2.41Z"/><polygon class="cls-1" points="79.68 70.73 55.43 70.73 55.43 56.35 67.56 45.84 79.68 56.35 79.68 70.73"/><path class="cls-1" d="M54.25,56.79a1.82,1.82,0,0,1-1.81-2,1.8,1.8,0,0,1,.64-1.24l13.3-11.52a1.8,1.8,0,0,1,1.18-.43,1.78,1.78,0,0,1,1.17.43L82,53.58a1.83,1.83,0,0,1,.63,1.24,1.81,1.81,0,0,1-3,1.53L67.56,45.84,55.43,56.35A1.81,1.81,0,0,1,54.25,56.79Z"/><path class="cls-1" d="M74.8,42.84h2.42V41.43a1,1,0,0,0-1-1h-.4a1,1,0,0,0-1,1Z"/><path class="cls-1" d="M67.52,70.73h-9.7V69.31a1,1,0,0,1,1-1h7.68a1,1,0,0,1,1,1Z"/><path class="cls-1" d="M66.31,68.3H59V62.85a3.64,3.64,0,1,1,7.27,0Z"/><line class="cls-2" x1="63.89" y1="65.27" x2="63.89" y2="64.06"/><path class="cls-2" d="M67.52,50.72a2.43,2.43,0,1,1-2.42,2.43A2.43,2.43,0,0,1,67.52,50.72Z"/><path class="cls-2" d="M76,66.08a1,1,0,0,1-1,1H72.17a1,1,0,0,1-1-1V60.83a1,1,0,0,1,1-1H75a1,1,0,0,1,1,1Z"/><path class="cls-1" d="M48.85,60.89a2,2,0,0,1-2,2H33.89a2,2,0,0,1-2-2V52.8a2,2,0,0,1,2-2H46.83a2,2,0,0,1,2,2Z"/><path class="cls-1" d="M31.87,53.81v-1a2,2,0,0,1,2-2H46.83a2,2,0,0,1,2,2v1Z"/><path class="cls-1" d="M28.23,42.9H49.45a1.22,1.22,0,0,1,1,.51,1.21,1.21,0,0,1,.16,1.09l-.4,1.21a1.21,1.21,0,0,1-1.15.83H28.23"/><path class="cls-1" d="M24.6,46.54H19.14A1.21,1.21,0,0,1,18,45.71l-.4-1.21a1.18,1.18,0,0,1,.16-1.09,1.22,1.22,0,0,1,1-.51H24.6"/><path class="cls-1" d="M28.23,72.42V39.47a1.18,1.18,0,0,0-.24-.73l-.61-.81a1.2,1.2,0,0,0-1-.48,1.23,1.23,0,0,0-1,.48l-.6.81a1.18,1.18,0,0,0-.24.73v31.7"/><path class="cls-2" d="M36.72,77a2.24,2.24,0,0,0-2.24-2.24,2.21,2.21,0,0,0-1,.26,3,3,0,0,0-2.71-1.75,2.94,2.94,0,0,0-1.22.27,4.45,4.45,0,0,0-8.46,1.81,2.24,2.24,0,1,0-1.51,3.89H34.48A2.14,2.14,0,0,0,36.72,77Z"/><line class="cls-1" x1="34.3" y1="50.78" x2="34.3" y2="46.54"/><line class="cls-1" x1="45.82" y1="50.78" x2="45.82" y2="46.54"/><line class="cls-2" x1="37.33" y1="56.85" x2="43.39" y2="56.85"/><line class="cls-2" x1="35.51" y1="59.88" x2="45.21" y2="59.88"/></svg>