<svg id="Layer_1" data-name="Layer 1" xmlns="http://www.w3.org/2000/svg" viewBox="0 0 100 100"><defs><style>.cls-1,.cls-2{fill:none;stroke:#4550e5;stroke-linejoin:round;}.cls-2{stroke-linecap:round;}</style></defs><title>write-paper-ink</title><path class="cls-1" d="M28.93,45.08a4.86,4.86,0,0,0-9.71,0v5.57a1.11,1.11,0,0,0,1.11,1.1h8.6Z"/><line class="cls-1" x1="45.9" y1="60.72" x2="45.9" y2="60.71"/><line class="cls-2" x1="45.9" y1="66.91" x2="45.9" y2="63.49"/><path class="cls-2" d="M50.75,76.61h-17a4.85,4.85,0,0,1-4.86-4.84V45.08a4.85,4.85,0,0,0-1.42-3.43,4.79,4.79,0,0,0-3.43-1.42h17a4.85,4.85,0,0,1,4.85,4.85v4.05"/><path class="cls-1" d="M50.76,76.62a4.85,4.85,0,0,0,4.82-5.33,5,5,0,0,0-5-4.38H37a.55.55,0,0,0-.32,1,4.85,4.85,0,0,1-2.94,8.71Z"/><line class="cls-2" x1="42.27" y1="47.51" x2="33.17" y2="47.51"/><line class="cls-2" x1="42.27" y1="51.15" x2="33.17" y2="51.15"/><line class="cls-2" x1="40.67" y1="54.79" x2="35.82" y2="54.79"/><line class="cls-2" x1="40.2" y1="58.42" x2="37.03" y2="58.42"/><polygon class="cls-1" points="54.26 53.81 49.97 49.52 51.26 47.38 56.41 52.52 54.26 53.81"/><path class="cls-1" d="M50.14,59.3a3.29,3.29,0,0,1-2.6,1.32c-1.61,0-4.11.25-5.71,1.33a11.52,11.52,0,0,0,1.33-5.71,3.28,3.28,0,0,1,1.32-2.6L50,49.52l4.29,4.29Z"/><polygon class="cls-1" points="56.41 52.52 51.26 47.38 55.55 41.37 62.41 48.23 56.41 52.52"/><path class="cls-1" d="M48.26,57.24a1.22,1.22,0,1,1,0-1.72A1.23,1.23,0,0,1,48.26,57.24Z"/><line class="cls-1" x1="46.54" y1="57.24" x2="42.25" y2="61.52"/><path class="cls-2" d="M78.43,30.81l.77.78a2.42,2.42,0,0,1,.08,3.35l-7.44,8.15"/><polygon class="cls-1" points="57.37 39.77 55.55 41.37 62.41 48.23 64.05 46.45 57.37 39.77"/><path class="cls-1" d="M62.41,48.23l-6.86-6.86L74.94,24.26a3.51,3.51,0,0,1,4.91,5Z"/></svg>