<svg id="Layer_1" data-name="Layer 1" xmlns="http://www.w3.org/2000/svg" viewBox="0 0 100 100"><defs><style>.cls-1{fill:none;stroke:#4550e5;stroke-linecap:round;stroke-linejoin:round;}</style></defs><title>color-palette</title><path class="cls-1" d="M44.25,69v1.45a2,2,0,0,1-2,2"/><path class="cls-1" d="M72,56.57a1.86,1.86,0,0,1,.39,1.18V70.42a2,2,0,0,1-2,2H46.7"/><polyline class="cls-1" points="67.77 55.75 61.82 59.2 58.05 61.38 54.02 63.72 47.13 67.71"/><line class="cls-1" x1="61.82" y1="59.2" x2="58.05" y2="61.38"/><path class="cls-1" d="M67.49,59.22h0a1.17,1.17,0,0,1,.9,1.13v7.48A1.14,1.14,0,0,1,67.25,69h-8a1.15,1.15,0,0,1-1.15-1.14V64.7"/><path class="cls-1" d="M54,67v.8A1.14,1.14,0,0,1,52.88,69H50.67"/><line class="cls-1" x1="54.03" y1="63.72" x2="47.13" y2="67.71"/><line class="cls-1" x1="44.25" y1="59.82" x2="44.25" y2="47.87"/><path class="cls-1" d="M47.12,49.53l1.32.76A1.16,1.16,0,0,1,49,51.54a.73.73,0,0,1-.12.32l-1.74,3"/><path class="cls-1" d="M50.39,61.82l2.89-1.67a1,1,0,0,0,.47-.54h0a1,1,0,0,0-.06-1L53,57.36"/><path class="cls-1" d="M55.3,53.33l1.4,2.42.48.82a1.16,1.16,0,0,0,1.57.42l2.14-1.24L65.72,53a1.16,1.16,0,0,0,.41-1.58l-3.74-6.46a1.17,1.17,0,0,0-1.58-.43l-.57.34"/><path class="cls-1" d="M47.12,67.71l6.91-4,4-2.34,3.77-2.18,5.95-3.45,2.42-1.4a2,2,0,0,0,.73-2.74l-6.35-11a2,2,0,0,0-1.38-1"/><line class="cls-1" x1="58.69" y1="41.74" x2="55.23" y2="47.72"/><line class="cls-1" x1="53.65" y1="50.47" x2="51.32" y2="54.49"/><line class="cls-1" x1="44.25" y1="68.97" x2="44.25" y2="66.71"/><line class="cls-1" x1="44.25" y1="69.38" x2="44.25" y2="68.97"/><line class="cls-1" x1="55.23" y1="47.72" x2="53.65" y2="50.47"/><path class="cls-1" d="M55.3,53.33l1.4,2.42.48.82a1.16,1.16,0,0,0,1.57.42l2.14-1.24L65.72,53a1.16,1.16,0,0,0,.41-1.58l-3.74-6.46a1.17,1.17,0,0,0-1.58-.43l-.57.34"/><polyline class="cls-1" points="47.13 61.74 48.6 59.2 50.59 55.75 51.32 54.48"/><path class="cls-1" d="M50.39,61.82l2.89-1.67a1,1,0,0,0,.47-.54h0a1,1,0,0,0-.06-1L53,57.36"/><path class="cls-1" d="M47.12,49.53l1.32.76A1.16,1.16,0,0,1,49,51.54a.73.73,0,0,1-.12.32l-1.74,3"/><path class="cls-1" d="M47.12,35.35l.48-.82a1.13,1.13,0,0,1,1.56-.42l6.48,3.75a1.13,1.13,0,0,1,.41,1.56L52.7,45.2,52,46.39a1.16,1.16,0,0,1-1.57.42l-.25-.14-3.08-1.78"/><path class="cls-1" d="M47.12,61.74,48.6,59.2l2-3.45.73-1.26,2.33-4,1.58-2.75,3.46-6,1.94-3.33a2,2,0,0,0-.73-2.74l-11-6.35a2,2,0,0,0-1.82-.08"/><line class="cls-1" x1="44.25" y1="40.31" x2="44.25" y2="33.41"/><line class="cls-1" x1="44.25" y1="47.87" x2="44.25" y2="43.23"/><line class="cls-1" x1="44.25" y1="66.71" x2="44.25" y2="59.82"/><line class="cls-1" x1="44.25" y1="43.23" x2="44.25" y2="40.31"/><path class="cls-1" d="M47.12,35.35l.48-.82a1.13,1.13,0,0,1,1.56-.42l6.48,3.75a1.13,1.13,0,0,1,.41,1.56L52.7,45.2,52,46.39a1.16,1.16,0,0,1-1.57.42l-.25-.14-3.08-1.78"/><path class="cls-1" d="M44.25,29.58V70.42a2,2,0,0,1-2,2H29.59a2,2,0,0,1-2-2V29.58a2,2,0,0,1,2-2H42.25A2,2,0,0,1,44.25,29.58Z"/><rect class="cls-1" x="31.03" y="31.6" width="9.77" height="10.35" rx="1.15" ry="1.15"/><rect class="cls-1" x="31.03" y="45.97" width="9.77" height="10.35" rx="1.15" ry="1.15"/><circle class="cls-1" cx="35.92" cy="66.67" r="1.72"/></svg>