<svg id="Layer_1" data-name="Layer 1" xmlns="http://www.w3.org/2000/svg" viewBox="0 0 100 100"><defs><style>.cls-1{fill:none;stroke:#4550e5;stroke-linecap:round;stroke-linejoin:round;}</style></defs><title>monitor-loading-progress</title><polygon class="cls-1" points="54.47 75.09 45.53 75.09 46.09 70.62 53.91 70.62 54.47 75.09"/><path class="cls-1" d="M56.4,77.33H43.6a.7.7,0,0,1-.65-1,2.24,2.24,0,0,1,2-1.27H55a2.24,2.24,0,0,1,2,1.27A.7.7,0,0,1,56.4,77.33Z"/><path class="cls-1" d="M65.45,70.62a3,3,0,0,0,3-3V66.15H31.55v1.47a3,3,0,0,0,3,3Z"/><path class="cls-1" d="M68.45,45.67a3,3,0,0,0-3-3H34.55a3,3,0,0,0-3,3V66.15h36.9Z"/><circle class="cls-1" cx="50" cy="68.39" r="0.5"/><path class="cls-1" d="M61.09,58.17a2,2,0,0,1-2,2H40.91a2,2,0,0,1,0-4H59.09A2,2,0,0,1,61.09,58.17Z"/><path class="cls-1" d="M54.26,56.17H40.91a2,2,0,0,0,0,4H54.26Z"/><path class="cls-1" d="M54.26,56.17H40.91a2,2,0,0,0,0,4H54.26Z"/><path class="cls-1" d="M43.55,29.31a1,1,0,0,0-.9.56,1,1,0,0,0,.11,1.05l6.45,8.36a1,1,0,0,0,1.58,0l6.45-8.36a1,1,0,0,0,.11-1.05,1,1,0,0,0-.9-.56H54V24.67a2,2,0,0,0-2-2H48a2,2,0,0,0-2,2v4.64Z"/></svg>